<svg xmlns="http://www.w3.org/2000/svg" viewBox="0 0 1448 1448" xmlns:v="https://vecta.io/nano"><path d="M1183.66 493.06q-.75.33.07.43 31.82 3.88 61.87 18.49 68.64 33.39 92.26 107.4c10.96 34.34 13.33 69.96 10.67 105.92q-2.14 29.04-7.76 60.4-.14.78.61.51c27.39-9.98 57.45 1.9 69.07 28.95q31.59 73.51 31.64 150.91.05 78.65-31.11 150.44-33.51 77.22-96.66 132.95-49.01 43.27-109.58 67.57c-73.54 29.51-155.99 34.45-233.27 15.11a1 .99 27.2 0 0-1 .32q-38.19 43.71-91.9 63.03-41.71 15-88.47 14.99-187.99-.03-370.19.1-11.37.01-19.66-.36-63.65-2.83-118.17-35.14c-34.93-20.69-64.06-51.6-85.09-88.02q-23.53-40.77-33.39-89.04-9.77-47.83-4.48-98.02 1.35-12.75 3.76-27.5 48.3-294.61 96.54-589.16a.22.22 0 0 0-.2-.26q-72.76-7.03-146.49-13.89-18.76-1.74-29.79-4.28-18.29-4.22-33.01-14.9-17.36-12.6-28.73-29.74Q.8 389.51 7.48 353.31c2.14-11.57 7.12-24.55 12.23-35.54q14.55-31.32 33.06-60.95 69.38-111.07 184.54-179.27c18.04-10.69 35.74-20.15 55.7-25.69q4.43-1.23 8.87-1.78 39-4.89 69.86 19.53 21.86 17.29 30.38 45.03c2.7 8.8 4.39 17.88 6.1 27.22q19.75 108.06 39.45 216.03a.82.82 0 0 0 .81.68l235.46.01a1.02 1.02 0 0 0 .96-.68q44.3-123 88.17-247.08 3.04-8.58 7.68-16.4 12.5-21.07 36.46-25.03 92.47-15.3 189.53-31.23c15.91-2.61 28.5 7.14 30.85 22.72q4.72 31.23 9.82 62.12c2.02 12.21-1.85 24.28-13.32 30.15q-3.99 2.05-12.15 3.2-75.34 10.69-147.43 21.04a.88.87-83.9 0 0-.71.58l-63.48 179.54q-.34.97.69.98 36.64.25 74.04.01 14.28-.08 18.69.91 10.65 2.41 16.1 12.14 2.62 4.68 4.41 14.93 2.09 12 3.74 21.44.16.9.66.13c.61-.95 1.13-2.06 1.82-2.96 10.6-13.82 27.54-13.98 39.89-2.42q13.35 12.49 24.41 26.78.96 1.24 1.68-.15c19.97-38.63 51.77-73.86 94.39-87.03q29.99-9.27 61.04-2.87 10.9 2.25 22.93 5.2 13.46 3.31 31.53 5.22c24.94 2.65 49.54-.03 71.29-12.06q8.57-4.73 12.93-9.6 3.81-4.24 7.23-6.96c8.56-6.8 20.45-7.23 29.56-1.09 9.12 6.15 13.27 16.91 10.58 27.62q-1.3 5.17-7.81 15.18-17.54 26.95-36.35 48.44-16.59 18.95-36.17 35.64-33.86 28.87-73.94 46.07zM991.08 93.05a.7.7 0 0 0-.8-.58l-164.02 26.91a3.62 3.6-84.7 0 0-2.82 2.35l-84.22 236.05a.58.57-80.4 0 0 .54.77l15.22-.04a1.42 1.41 9.4 0 0 1.32-.94q37.66-106.63 74.03-209.39 4.18-11.8 13.37-16.37 4.29-2.13 14.96-3.64 67.21-9.52 134.29-19.04a.54.53-8.5 0 0 .46-.61l-2.33-15.47zM112.34 259.16q-27.93 39.4-48.2 84.13-3.82 8.42-5.88 15.99-4.38 16.08 3.99 30.75a.43.42-48.4 0 0 .76-.05q29.31-68.01 72.62-126.74c51.5-69.82 118.99-128.17 202.23-154.64q.68-.22.1-.63-13.01-9.16-27.52-7.55c-6.91.76-13.72 3.33-20.06 6.28-11.17 5.2-21.68 11.27-32.01 17.58-57.92 35.39-107.43 80.43-146.03 134.88zm283.49 98.59l-36.89-201.67a.66.65 75.9 0 0-.84-.51c-61.2 18.67-112.99 56.41-154.78 105.35q-60.09 70.4-96.32 155.61-.29.68.45.75l159.84 15.3a.53.53 0 0 0 .57-.44q3.33-19.84 6.92-42.69 1.95-12.48 4.08-16.68 4.52-8.95 14.09-12.53 4.74-1.77 15.48-1.74 42.63.1 86.8-.02a.62.61 84.9 0 0 .6-.73zm643.24 100.15q-2.24 4.69-4.57 9.49a.34.33-85 0 0 .39.47q8.17-2.42 17.07-3.47c17.49-2.06 35.11-2.72 52.31-3.9q27.08-1.85 52.5-11.71 41.29-16 74.31-46.77.48-.45-.18-.42-21.16.72-42.36-2.41c-14.86-2.2-28.63-5.43-42.75-9.02-24.12-6.12-48.24-.24-67.49 15.46-16.79 13.69-29.77 32.46-39.23 52.28zM913.72 614.75l-37.08-204.94a.41.41 0 0 0-.4-.34h-83.83q-.45 0-.61.42l-89.01 251.83q-.23.66.47.58 11.56-1.45 22.24-6.1c6.85-2.99 13.35-7.19 19.48-11.62q9.35-6.75 19.74-14.66 8.99-6.84 16.58-11.09c40.1-22.44 90.44-24.02 131.81-3.62a.43.43 0 0 0 .61-.46zm-692.75 418.12q-4.6 27.91-8.42 51.37-2.77 16.96-3.84 35.17c-2.75 46.31 6.22 92.69 27.57 133.54q.38.74 1.2.92 222.17 48.93 448.76 42.91 9.95-.26 19.99-.79 74.63-3.93 147.61-15.98 1.25-.21.2-.91-32.36-21.66-59.93-50.31-19.15-19.9-36.22-43.25-4.65-6.36-8.24-13.42c-13.91-27.33-2.79-58.73 23.66-73.35q101.85-56.29 206.87-114.25a.54.52-20.3 0 0 .27-.56l-53.67-297.01a2.09 2.06 14.1 0 0-.77-1.27q-12.11-9.4-24.97-18.44c-23.4-16.45-53.71-19.4-80.45-10.46q-12.35 4.12-21.24 10.9-14.34 10.93-31.13 22.66c-12.15 8.49-25.9 14.96-40.42 18.86q-1.07.28.03.45c13.78 2.07 22.74 14.63 20.21 28.3-1.49 8.04-7.39 15-15.09 17.8-19.02 6.9-37.93-11.28-30.82-30.55q2.96-8.03 9.69-11.87 1.6-.9-.22-.68-13.71 1.68-26.7 1.33-.61-.01-.82.56-50.23 142.06-89.55 253.26-2.16 6.11-5.43 9.6-13.14 14.04-31.07 6.18-28.62-12.53-60.43-26.7c-13.43-5.98-19.36-19.58-14.35-33.62q45.59-127.7 92.02-257.63a1.35 1.35 0 0 0-.62-1.63q-29.41-16.11-61.41-10.94c-4.26.68-8.51 1.93-12.68 3.1-10.77 3.02-21.28.65-28.81-7.81-10.49-11.78-6.7-29.26 5.9-37.31q4.83-3.08 8.17-4.01 20.38-5.69 42.81-5.97 33.34-.4 63.63 14.61a.71.71 0 0 0 .99-.4l73.29-205.41a.29.29 0 0 0-.27-.39h-342.7q-.34 0-.39.34l-35.39 215.91a.57.56-67.9 0 0 .22.54q14.87 11.1 29.18 21.42c14.07 10.15 30.96 15.63 48.38 15.23 12.42-.29 23.17 3.18 29.35 14.16 3.71 6.61 4.06 16.12.48 22.8q-7.44 13.9-24.29 14.26-25.58.55-49.65-7.7c-14.98-5.14-29.4-13.4-42.25-23.14a.57.57 0 0 0-.9.36q-28.53 174.48-57.34 349.22zm500.11-623.35a.5.5 0 0 0-.47.33L636.43 645.8a.5.5 0 0 0 .22.6l14.03 8.12a.5.5 0 0 0 .72-.27l86.3-244.08a.5.5 0 0 0-.47-.67l-16.15.02zm212.55 29.17l11.91 65.92a1.05 1.03.9 0 0 .83.84l36.11 6.94a.27.27 0 0 0 .3-.36q-12.73-33.98-34.81-59.28c-4.4-5.04-9.23-9.62-13.92-14.28q-.57-.57-.42.22zm28.78 159.28L1027.52 958a.37.29-21.8 0 0 .52.15l254.68-140.58a1.12 1.11 81.4 0 0 .56-.77q7.26-36.33 12.25-73.57c5.79-43.17 5.19-89.63-14.63-129.14q-15.61-31.13-44.66-49.22-25.18-15.69-54.05-20.03-10.03-1.51-12.78-1.71-13.58-.95-23.66-.05-11.36 1.02-27.17 4.43-.96.21-.04.55c10.31 3.84 17.72 11.22 18.97 22.36 1.88 16.78-12.95 30.61-29.3 27.39q-3.57-.7-7.95-2.23c-5.96-2.09-13.07-2.37-18.26 2.02q-4.56 3.84-8.9 7.2-18.84 14.57-41.99 16.65c-21.65 1.94-43.11-4.91-61.04-17.55q-3.89-2.75-7.1-6.21-.76-.81-.56.28zm-6.68-38.96a.23.23 0 0 0-.27.26l1.44 8.67q.13.75.47.07 2.07-4.05 5.24-6.97a.41.41 0 0 0-.2-.7l-6.68-1.33zM633.91 703.7a.58.58 0 0 0-.28-.7l-14.24-7.47a.58.58 0 0 0-.81.32l-79.63 223.07a.58.58 0 0 0 .31.73l15.27 6.74a.58.58 0 0 0 .78-.34l78.6-222.35zm730.69 133.09q-.36-1.24-1.44-1.92-.61-.39-.22.23.64 1.03 1.4 1.84.43.47.26-.15zm-31.47 55.78c-3.01-10.18-5.81-18.67-11.36-26.94q-3.07-4.59-8.97-5.24-1.95-.21-3.62.71-70.54 38.97-139.99 77.34-.82.46.11.58l166.75 22.24q.73.09.93-.61.39-1.33.68-3.15 5.17-32.15-4.53-64.93zm-518.25 283.16q36.82 43.43 84.53 71.74 77.01 45.69 167.33 45.37c52.75-.19 105.26-12.87 151.54-38.04 56.89-30.93 103.38-76.04 133.8-133.17q14.43-27.12 24.36-58.25 18.58-58.28 14.31-119.51-.02-.19-.21-.19h-.01q-.19 0-.2.19-.96 14.78-4.04 30.55c-3.32 16.98-11.52 30.68-28.52 36.41-11.06 3.73-24.35 1.75-36.52.12q-28.82-3.87-58.38-8.11-1.07-.15-.06.22 3.29 1.21 6.93 2.24 25.89 7.32 50.81 14.55 14.62 4.25 17.73 5.74c19.74 9.47 30.35 30.43 24.16 51.83-11.82 40.87-36.82 78.93-67.55 107.56q-14.98 13.96-32.25 24.26c-21.16 12.63-52.39 20.51-69.9-3.32q-4.51-6.15-9.44-15.19-11.71-21.53-24.3-44.51-.07-.13-.21-.07h-.01q-.14.07-.09.22 9.97 25.63 19.83 51.73c10.7 28.31-1.55 59.92-29.12 73.14q-45.9 22.01-95.27 19.74c-6.82-.31-13.94-1.23-20.62-2.31-25.27-4.09-51.36-15.71-67.88-35.1q-11.52-13.52-9.38-29.41.78-5.73 6.19-18.82 10.47-25.3 21.12-51.93.08-.19-.1-.28l-.24-.12q-.05-.02-.09.03-15.59 27.06-28.33 47.04-5.53 8.68-11.22 14.42-16.63 16.79-40.66 17.16c-11.85.19-25.12-4.58-35.05-10.67q-17.57-10.77-34.66-27.8-19.59-19.53-37.03-44.59-2.24-3.22-.87.46 1.14 3.03 3.32 6.01 8.28 11.26 16.25 20.66zm288.16-199.83q.29-1.1-.71-.55l-50.03 27.64a.47.47 0 0 0 .08.86q19.94 6.56 35.94-5.32c7.42-5.51 12.33-13.5 14.72-22.63zm126.34 192.43a.7.7 0 0 0 .87.31c17.1-6.96 31.74-20.22 43.69-34.72q23.43-28.43 37.06-63.03a.69.69 0 0 0-.45-.92l-160.1-46.17q-.86-.24-.43.54l79.36 143.99zm-390.25-46.84q8.97 12.08 16.96 21.59 17.53 20.88 39.95 35.53c4.33 2.84 10.66 2.82 13.69-2.22q42.6-70.79 85.01-141.12.45-.75-.32-.33l-155.26 85.69a.45.44 65.8 0 0-.2.54q.06.17.17.32zm234.27-53.89l-63.53 156.78q-.49 1.21.62 1.91c19.67 12.32 44.73 16.05 67.96 13.41q24.25-2.76 47.79-14.05 1.82-.88 3.42-1.99c2.87-2 1.59-6.94.51-9.75q-25.46-66.25-56.26-146.31-.25-.65-.51 0zm-785.76 249.18c34.88 27.91 77.99 42.73 122.7 42.73q195.16.04 382.57-.06 23.49-.01 47.59-5.68 37.32-8.78 66.96-31.42 1.59-1.21-.37-.81c-105.43 21.99-212.6 29.67-320.81 26.53q-150-4.36-297.91-31.78-.13-.02-.27.02-.19.07-.37.1a.21.21 0 0 0-.09.37z"/><rect x="-21.14" y="-34.61" transform="matrix(.921185 -.389124 .389124 .921185 316.55 264.17)" width="42.28" height="69.22" rx="20.07"/><rect x="-33.47" y="-21.11" transform="matrix(.718126 .695913 -.695913 .718126 263.4 315.53)" width="66.94" height="42.22" rx="20.13"/><rect x="-34.58" y="-21.1" transform="matrix(.940288 .34038 -.34038 .940288 214.51 371.28)" width="69.16" height="42.2" rx="20"/><ellipse cx="0" cy="0" transform="matrix(-.111469 .993768 -.993768 -.111469 313.04 749.2)" rx="27.17" ry="24.46"/><circle cx="397.98" cy="814.94" r="23.83"/><rect x="-24.06" y="-132.93" transform="matrix(.993171 .116671 -.116671 .993171 293.86 926.11)" width="48.12" height="265.86" rx="23.64"/><circle cx="806.32" cy="923.89" r="23.95"/><circle cx="588.48" cy="1032.77" r="23.97"/><circle cx="343.47" cy="1114.42" r="23.92"/><circle cx="588.48" cy="1223.29" r="23.97"/></svg>