<svg xmlns="http://www.w3.org/2000/svg" viewBox="0 0 512 512" xmlns:v="https://vecta.io/nano"><path d="M365.17 185.32q10.56-2.34 21.27-5.03 12.52-3.13 19.36-3.33 13.87-.39 24.51 3.19 34.73 11.66 42.15 48.43c3.57 17.71 1.05 36.07-2.23 53.8q-.22 1.18.79.52c9.06-5.85 20.69-3.41 25.02 6.63 26.38 61.08 3.41 131.14-53.6 164.78-30.23 17.83-65.73 22.2-99.7 13.48q-.52-.14-.87.28c-15.95 18.98-38.09 27.65-62.67 27.66q-69.47.03-133.55.01-20.17-.01-38.15-8.7c-33.24-16.07-50.21-53.49-48.84-89.72q.3-7.8 1.8-16.93 17.5-106.19 34.69-211.73.09-.54-.45-.59-29.37-2.89-57.83-5.5c-9.75-.9-16.18-3.59-22.97-10.72q-9.66-10.15-8.78-23.08.45-6.72 5.47-17.12Q37.03 56.86 90.15 27.3q10.87-6.04 17.95-6.74 12-1.18 21.57 6.46c6.71 5.35 9.63 12.11 11.15 20.57q7.14 39.66 14.94 81.81.08.39.47.39h87.71q.27 0 .37-.26 16.31-45.23 31.98-89.6c2.37-6.69 5.96-11.23 13.25-12.45q33.34-5.54 67.22-11.07c3.76-.61 6.64 1.9 7.16 5.5q1.61 11.04 3.46 21.96c.68 4.02-.76 7.6-5.23 8.25q-25.98 3.78-54.86 7.84-.48.07-.64.52l-24.38 68.96a.26.26 0 0 0 .25.35q17.2 0 34.49.01 5.49.01 6.52 5.74 4.08 22.66 8.17 45.21a.74.74 0 0 0 .58.59l19.24 3.69a.31.31 0 0 0 .36-.39c-3.39-11.58-10.07-23.19-19.21-31.44-6.39-5.76 1.69-14.95 8.35-8.68q6.94 6.55 11.11 13.06a.43.43 0 0 0 .75-.05c10.13-22.64 30.13-40.83 56.6-33.97 15.42 4 32.82 6.32 46.58-3.26q1.93-1.35 3.38-3.13c5.05-6.23 14.06.19 9.87 7.08-16.54 27.14-42.36 49.43-74.11 53.23q-5.04.6-9.68.72c-6.08.16-16.73.13-21.14 4.81q-.43.45-.23 1.05l.27.83a.64.64 0 0 0 .75.43zM296.65 52.79c.76-2.15 2.66-3.82 4.95-4.14q26.94-3.8 52.78-7.49a.37.36-9.3 0 0 .31-.42l-1.71-10.95a.59.59 0 0 0-.68-.49l-60.78 9.97a4.02 4.01-84.7 0 0-3.13 2.61l-31.19 87.41a.37.37 0 0 0 .35.5l11.4-.01a.68.67-80.1 0 0 .63-.45q13.47-38.05 27.07-76.54zM93.24 39.3q-49.78 29.03-73.27 80.75-3.02 6.65-2.94 10.79.13 7.17 5.48 12.68a.39.39 0 0 0 .64-.12C41.58 98.69 76.37 52.91 124.84 39.96a.49.49 0 0 0 .24-.8q-7.74-8.41-17.5-6.38-4.91 1.02-14.34 6.52zM69.48 90.43c-14.65 17.12-27.17 37.44-35.83 59.1q-.24.6.4.66l62.68 6q.47.04.55-.43 1.58-9.36 3.38-20.62c.52-3.27 2.98-5.35 6.37-5.35q18.78.02 36.08-.01a.43.42-5.1 0 0 .42-.5l-14.19-77.54a.55.55 0 0 0-.68-.43C105.1 57.6 85.28 71.96 69.48 90.43zm291.02 79.94a.25.25 0 0 0 .35.31q4.87-2.59 10.79-3.42c8.47-1.18 17.04-.79 25.38-2.16 17.5-2.88 34.14-13.39 46.07-26.37q.69-.74-.32-.57c-12.19 2.15-24.62.19-36.89-3.13q-6.12-1.65-12.88-.43c-16.64 3.02-27.12 20.87-32.5 35.77zm-230.49 67.04c10.02-.33 10.19 12.08.98 12.15-13.97.1-24.1-4.77-34.23-13.31a.32.32 0 0 0-.52.19q-11.49 70.29-24.08 146.77-5.57 33.83 8.94 61.71c.62 1.2.97 1.12 2.16 1.38q76.49 16.83 154.26 15.37 34.72-.66 71.88-7.29 1.21-.21.15-.84-22.73-13.45-39.22-36.21-2.87-3.95-3.82-7.35c-2.08-7.38 1.46-15.02 8.14-18.7q37.19-20.47 75.02-41.43a.6.59-20 0 0 .3-.63l-19.46-107.69a1.59 1.58-76.6 0 0-.59-.97q-4.93-3.81-9.9-7.32c-11.46-8.11-28.93-7.55-39.76.85q-5.45 4.23-10.72 7.82-11.36 7.74-26.01 7.57-1.56-.02-3.14-.02-.55-.01-.74.52-15.84 44.81-32.22 91.12c-1.39 3.94-4.81 5.78-8.79 4q-10.58-4.74-21.57-9.53c-3.06-1.33-4.62-4.59-3.48-7.78q16.3-45.55 33.22-93.01.37-1.04-.56-1.65c-8.51-5.59-19.91-7.36-30.11-4.01-5.73 1.88-10.89-3.95-7.31-9.01 1.76-2.49 5.4-3.07 8.22-3.61q18.7-3.56 34.04 5.5a.23.23 0 0 0 .33-.12l28.41-79.62a.36.36 0 0 0-.34-.48H112.3a.66.66 0 0 0-.65.55l-13.1 79.93a.77.75-67.8 0 0 .3.73q5.75 4.24 11.16 8.21 8.93 6.57 20 6.21zm134.95-94.99a.47.47 0 0 0-.45-.63l-11.45.01a.47.47 0 0 0-.44.31l-31.17 87.36a.47.47 0 0 0 .21.57l9.74 5.63a.47.47 0 0 0 .68-.25l32.88-93zm9.93 80.78c15.08-10.3 36.92-10.32 51.69 0q.7.49.55-.36l-14.63-80.85a.26.25 84.5 0 0-.25-.21h-33.93a.58.57 9 0 0-.55.39L244.25 237a.35.35 0 0 0 .33.47q6.93.01 12.93-2.56c6.24-2.67 11.71-7.84 17.38-11.71zm119.79-26.52c8.51 3.13 4.01 14.49-3.76 11.36q-2.58-1.03-5.37-.98c-3.43.06-5.51 2.53-7.94 4.44-9.71 7.63-22.78 6.72-32.76-.33q-2.77-1.96-3.69-4.14c-2.53-5.99 4.91-11.05 9.85-6.39q1.37 1.3 3.03 2.15a.35.35 0 0 0 .51-.32l-.17-4q-.03-.64-.66-.76l-19.24-3.78a.29.28.1 0 0-.34.33l26.93 148.92q.06.37.38.19l94.64-52.24a.77.75-9.3 0 0 .37-.5q2.73-13.13 4.79-28.74c3.86-29.2-2.62-58.79-32.88-69.73q-9.35-3.38-20.11-3.31-7.09.05-19.6 3.26-10.06 2.58-21.99 5.14a.4.39 83 0 0-.31.4l.19 6.29a.12.12 0 0 0 .17.11q3.2-1.33 5.58-3.68c5.9-5.8 14.62-6.56 22.38-3.69zm-166.86 50.78a.32.32 0 0 0-.16-.39l-10.2-5.33a.32.32 0 0 0-.45.18l-30.17 84.52a.32.32 0 0 0 .17.4l10.7 4.74a.32.32 0 0 0 .44-.19l29.67-83.93zm163.96 119.77q-.04.02-.03.07 11.42 29.2 22.13 57.29c3.29 8.64-.37 18.14-8.64 22.15q-11.4 5.53-24.03 6.64c-12.86 1.13-28.56-1.89-37.35-11.89q-4.43-5.04-2.03-10.95 11.7-28.8 22.95-56.67.02-.05-.03-.08-.04-.03-.09-.02-.08.02-.12.1-14.65 24.14-27.04 45.04-4.57 7.7-7.64 9.96c-7.77 5.73-16.21 4.26-24-1.34-8.83-6.35-15.42-14.03-21.75-22.83q-1.08-1.51-1.62-3.24-.18-.57-.74-.34c-4.72 1.91-4.54 5.27-1.87 8.97 22.86 31.66 58.69 50.54 97.74 50.07q37.07-.44 66.96-21.47 27.48-19.33 40.59-49.91 19.61-45.73.36-93.62c-1.72-4.3-5.41-4.1-8.61-1.85q-.49.34-.06.76 2.73 2.6 4.14 5.33 11.31 21.96 5.95 45.86-1.69 7.54-8.42 9.52-2.89.85-10.18-.18-27.34-3.87-60.02-8.09-.12-.01-.14.1v.01q-.04.16.12.2 31.59 9.11 61.8 17.85c6.67 1.93 10.73 8.54 8.76 15.48-4.95 17.46-18.76 36.06-34.2 45.01-5.49 3.18-13.26 5.76-18.7 1.43q-1.95-1.55-4.53-6.3-14.22-26.13-29.22-53.1-.07-.13-.21-.07l-.23.11zm13.23-33.29l69.45 9.26q.6.08.75-.5c2.63-10.52 1.59-21.55-2.4-32.47q-1.33-3.66-3.46-6.55-1.64-2.22-5.88-2.61-.51-.04-.96.2l-57.65 31.85q-1.17.64.15.82zm-38.54 21.33c12.46 9.07 27.97-.39 26.98-15.34a.32.32 0 0 0-.48-.26l-26.44 14.62q-.81.44-.06.98zm34.45 2.78l32.09 58.23q.36.66 1.08.45c15.05-4.42 28.35-25.09 33.21-39.56a.77.77 0 0 0-.52-.99l-65.29-18.83a.49.49 0 0 0-.57.7zm-46.65 3l-59.57 32.88a2.58 2.58 0 0 0-.86 3.75c5.97 8.38 12.46 15.89 21.27 21.56 3.03 1.95 7.12 1.65 9.1-1.66q16.23-27.02 32.48-53.93.41-.69-.16-1.25l-1.22-1.21q-.47-.46-1.04-.14zm24.54 10.27l-25.23 62.26q-.24.58.22 1.02 1.95 1.86 4.48 3.06c13.45 6.43 28.98 4.6 42.08-1.97 2.81-1.41 3.26-4.41 2.22-7.13q-11.07-28.74-22.18-57.68a.59.58 69.4 0 0-.73-.34q-.64.23-.86.78zM92.41 461.1c13.57 14.47 32.52 22.6 52.35 22.63q67.57.07 135.04-.02c18.83-.03 36.58-6.27 49.65-19.8a.41.4-56.4 0 0-.13-.65c-.79-.35-1.67-.57-2.52-.38-44.43 10.16-89.83 12.58-135.76 10.14q-49.02-2.61-98.36-12.4-.89-.18-.27.48z"/><rect x="-5.97" y="-10.78" transform="matrix(.92521 -.379456 .379456 .92521 111.93 93.41)" width="11.94" height="21.56" rx="5.7"/><rect x="-10.36" y="-5.97" transform="matrix(.718126 .695913 -.695913 .718126 93.14 111.57)" width="20.72" height="11.94" rx="5.71"/><rect x="-10.76" y="-5.96" transform="matrix(.942641 .333807 -.333807 .942641 75.85 131.28)" width="21.52" height="11.92" rx="5.67"/><circle cx="256.21" cy="259.31" r="5.97"/><ellipse cx="0" cy="0" transform="matrix(-.113203 .993572 -.993572 -.113203 110.69 264.91)" rx="7.12" ry="6.16"/><rect x="-6" y="-44.53" transform="matrix(.993171 .116671 -.116671 .993171 103.91 322.46)" width="12" height="89.06" rx="5.91"/><circle cx="140.72" cy="288.16" r="5.94"/><circle cx="285.11" cy="326.68" r="5.98"/><circle cx="208.08" cy="365.18" r="5.99"/><circle cx="121.45" cy="394.05" r="5.97"/><circle cx="208.08" cy="432.55" r="5.99"/></svg>